:SAMPLES-PER-SECOND 24
:FULLY-SPECIFIED
:DEGREES
238
root  9.05744 40.9925 28.8873 177.206 51.483 165.009
RightUpLeg  -13.7797 1.5352 -13.0595
RightLeg  22.4925 -3.02813 -1.59444
RightFoot  -6.05186 -0.461501 9.07896
RightToes  -2.08645e-008 3.77894e-005 6.81332e-007
Spine  17.1831 -0.736181 4.95732
Spine1  5.42356 -1.87766 6.86881
HEad  -40.9155 54.7194 -36.6857
LeftShoulder1  6.02959 -11.7171 -33.6134
LeftArm  12.0435 29.0805 -20.8171
LeftForeArm  147.763 -74.6971 -141.064
LeftHand  -0.177997 -3.08752 2.67331
RightShoulder  3.9586 6.77841 32.6134
RightArm  6.74556 -36.1343 21.4224
RightForeArm  101.694 80.0533 96.9371
RightHand  -0.190055 7.67955 -2.05364
LeftUpLeg  -28.4936 -0.46005 13.0891
LeftLeg  31.8466 2.34056 1.92025
LeftFoot  8.05059 3.19941 -18.8672
LeftToes  1.24767e-006 1.47042e-008 1.32732e-009
239
root  9.38291 40.3185 28.862 178.794 43.2617 166.384
RightUpLeg  -9.93627 -1.5143 -12.1165
RightLeg  21.2858 -7.24615 -3.32633
RightFoot  -12.0934 -0.0355067 6.65794
RightToes  -2.08645e-008 3.77894e-005 6.81332e-007
Spine  14.1965 -0.954428 6.55845
Spine1  5.89687 -1.67883 4.94145
HEad  -41.1481 55.8143 -39.4968
LeftShoulder1  6.0693 -11.7563 -33.7702
LeftArm  8.60599 30.106 -22.1147
LeftForeArm  143.342 -76.5185 -134.625
LeftHand  -0.25161 -3.29713 3.60252
RightShoulder  3.81533 6.6172 31.8083
RightArm  5.87015 -37.7153 18.362
RightForeArm  80.5644 79.8027 76.5727
RightHand  -0.312853 7.65651 -3.14516
LeftUpLeg  -29.1477 -1.0036 13.968
LeftLeg  32.9581 2.20196 1.89296
LeftFoot  9.1544 3.45706 -19.2797
LeftToes  1.24767e-006 1.47042e-008 1.32732e-009
240
root  9.45043 39.7186 28.6985 -179.5 38.1874 168.819
RightUpLeg  -6.93274 -6.71337 -9.84848
RightLeg  19.3197 -9.93151 -4.12435
RightFoot  -16.4548 0.14215 5.64144
RightToes  -2.08645e-008 3.77894e-005 6.81332e-007
Spine  13.1426 -0.308444 12.039
Spine1  6.30541 0.711994 -0.0568335
HEad  -42.1504 55.5755 -41.8631
LeftShoulder1  6.43681 -12.1409 -35.1196
LeftArm  4.55151 29.5198 -24.2573
LeftForeArm  126.835 -79.2891 -116.344
LeftHand  -0.435594 -2.7524 6.45845
RightShoulder  3.71519 6.51446 31.1899
RightArm  4.97325 -37.0084 15.7439
RightForeArm  57.9816 77.8864 55.2962
RightHand  -0.530941 7.38902 -5.17271
LeftUpLeg  -28.2957 -0.435931 15.2145
LeftLeg  33.5822 4.10511 3.2827
LeftFoot  9.39125 3.32191 -18.3397
LeftToes  1.24767e-006 1.47042e-008 1.32732e-009
241
root  9.33556 39.4369 28.3777 -177.6 36.4976 171.61
RightUpLeg  -6.0705 -8.40289 -7.96305
RightLeg  18.9602 -10.6801 -4.25077
RightFoot  -17.6323 0.173897 5.32865
RightToes  -2.08645e-008 3.77894e-005 6.81332e-007
Spine  12.7124 0.385815 19.6902
Spine1  8.23562 4.30834 -8.15244
HEad  -44.9326 54.954 -44.5541
LeftShoulder1  6.93543 -12.6175 -36.9506
LeftArm  -1.72242 31.1027 -27.8557
LeftForeArm  107.259 -80.3884 -95.7797
LeftHand  -0.60736 -1.70158 10.1245
RightShoulder  3.61526 6.48693 30.2783
RightArm  2.73691 -32.4919 16.217
RightForeArm  46.3005 75.5784 43.1583
RightHand  -0.688376 7.10912 -6.73346
LeftUpLeg  -26.0308 1.42793 15.8787
LeftLeg  33.6751 7.14695 5.45098
LeftFoot  7.72251 2.55792 -15.4182
LeftToes  1.24767e-006 1.47042e-008 1.32732e-009
242
root  9.19746 39.3792 27.8814 -174.937 34.3439 173.561
RightUpLeg  -7.0203 -10.7502 -7.11315
RightLeg  19.661 -9.16783 -3.80426
RightFoot  -17.328 0.226835 6.58005
RightToes  -2.08645e-008 3.77894e-005 6.81332e-007
Spine  11.2304 1.28726 24.1498
Spine1  9.23489 6.7536 -13.1265
HEad  -45.4327 54.5945 -43.9699
LeftShoulder1  7.12039 -12.7712 -37.659
LeftArm  -8.36776 36.7709 -33.2428
LeftForeArm  102.488 -80.3468 -92.7801
LeftHand  -0.632075 -1.28948 11.139
RightShoulder  3.52184 6.43819 29.5009
RightArm  -1.04494 -27.3037 19.2881
RightForeArm  49.2648 75.9123 43.8742
RightHand  -0.863836 7.1521 -8.32384
LeftUpLeg  -25.064 3.7102 14.355
LeftLeg  33.0429 10.2362 7.44295
LeftFoot  6.98816 2.04195 -12.8785
LeftToes  1.24767e-006 1.47042e-008 1.32732e-009
